<svg xmlns="http://www.w3.org/2000/svg" viewBox="0 0 1200 630" width="1200" height="630">
  <defs>
    <linearGradient id="bg" x1="0%" y1="0%" x2="100%" y2="100%">
      <stop offset="0%" style="stop-color:#0c1f1e"/>
      <stop offset="100%" style="stop-color:#0d2b2a"/>
    </linearGradient>
    <linearGradient id="tableHeader" x1="0%" y1="0%" x2="0%" y2="100%">
      <stop offset="0%" style="stop-color:#134e4a"/>
      <stop offset="100%" style="stop-color:#0f3d3a"/>
    </linearGradient>
  </defs>

  <!-- Background -->
  <rect width="1200" height="630" fill="url(#bg)"/>

  <!-- Subtle grid -->
  <g stroke="#0d9488" stroke-width="0.3" opacity="0.07">
    <line x1="0" y1="90" x2="1200" y2="90"/>
    <line x1="0" y1="180" x2="1200" y2="180"/>
    <line x1="0" y1="270" x2="1200" y2="270"/>
    <line x1="0" y1="360" x2="1200" y2="360"/>
    <line x1="0" y1="450" x2="1200" y2="450"/>
    <line x1="0" y1="540" x2="1200" y2="540"/>
    <line x1="150" y1="0" x2="150" y2="630"/>
    <line x1="300" y1="0" x2="300" y2="630"/>
    <line x1="450" y1="0" x2="450" y2="630"/>
    <line x1="600" y1="0" x2="600" y2="630"/>
    <line x1="750" y1="0" x2="750" y2="630"/>
    <line x1="900" y1="0" x2="900" y2="630"/>
    <line x1="1050" y1="0" x2="1050" y2="630"/>
  </g>

  <!-- ===== TOP LABEL ===== -->
  <text x="600" y="46" text-anchor="middle" fill="#2dd4bf" font-family="monospace" font-size="12" opacity="0.45" letter-spacing="4">GMT RETOOLING · DELIVERY BACKBONE · GLOBAL MANGROVE TRUST</text>

  <!-- ===== TABLE ===== -->
  <!-- Table card -->
  <rect x="60" y="66" width="1080" height="510" rx="12" fill="#0a1e1d" stroke="#1f5e58" stroke-width="1.5"/>

  <!-- Header row -->
  <rect x="60" y="66" width="1080" height="48" rx="12" fill="url(#tableHeader)"/>
  <rect x="60" y="90" width="1080" height="24" fill="url(#tableHeader)"/>

  <!-- Column headers -->
  <g font-family="monospace" font-size="13" font-weight="700" fill="#5eead4">
    <text x="90"  y="97">Work Unit</text>
    <text x="290" y="97">Partner</text>
    <text x="470" y="97">Status</text>
    <text x="640" y="97">QC</text>
    <text x="790" y="97">Evidence</text>
    <text x="1010" y="97">Quarter</text>
  </g>

  <!-- Column dividers -->
  <g stroke="#1f5e58" stroke-width="0.8" opacity="0.6">
    <line x1="270" y1="114" x2="270" y2="576"/>
    <line x1="450" y1="114" x2="450" y2="576"/>
    <line x1="620" y1="114" x2="620" y2="576"/>
    <line x1="770" y1="114" x2="770" y2="576"/>
    <line x1="980" y1="114" x2="980" y2="576"/>
  </g>

  <!-- ===== ROW 1 ===== -->
  <rect x="61" y="114" width="1078" height="60" fill="#0d1f1e" opacity="0.6"/>
  <text x="90"  y="150" font-family="monospace" font-size="12" fill="#b2f5ea">Work Unit 1</text>
  <text x="290" y="150" font-family="monospace" font-size="12" fill="#94a3b8">Partner 1</text>
  <!-- Status: Delivered -->
  <rect x="465" y="134" width="100" height="24" rx="12" fill="#065f46" stroke="#059669" stroke-width="0.8"/>
  <text x="515" y="151" text-anchor="middle" font-family="monospace" font-size="11" fill="#34d399">Delivered</text>
  <!-- QC: Pass -->
  <rect x="638" y="134" width="80" height="24" rx="12" fill="#065f46" stroke="#059669" stroke-width="0.8"/>
  <text x="678" y="151" text-anchor="middle" font-family="monospace" font-size="11" fill="#34d399">✓ Pass</text>
  <text x="790" y="150" font-family="monospace" font-size="12" fill="#0d9488">📎 3 files</text>
  <text x="1010" y="150" font-family="monospace" font-size="12" fill="#64748b">Q1 2025</text>

  <!-- Row divider -->
  <line x1="61" y1="174" x2="1139" y2="174" stroke="#1f5e58" stroke-width="0.5" opacity="0.5"/>

  <!-- ===== ROW 2 ===== -->
  <rect x="61" y="174" width="1078" height="60" fill="#0a1a19" opacity="0.3"/>
  <text x="90"  y="210" font-family="monospace" font-size="12" fill="#b2f5ea">Work Unit 2</text>
  <text x="290" y="210" font-family="monospace" font-size="12" fill="#94a3b8">Partner 2</text>
  <!-- Status: In Review -->
  <rect x="465" y="194" width="100" height="24" rx="12" fill="#1c3158" stroke="#3b82f6" stroke-width="0.8"/>
  <text x="515" y="211" text-anchor="middle" font-family="monospace" font-size="11" fill="#60a5fa">In Review</text>
  <!-- QC: Pending -->
  <rect x="638" y="194" width="80" height="24" rx="12" fill="#422006" stroke="#d97706" stroke-width="0.8"/>
  <text x="678" y="211" text-anchor="middle" font-family="monospace" font-size="11" fill="#fbbf24">Pending</text>
  <text x="790" y="210" font-family="monospace" font-size="12" fill="#0d9488">📎 1 file</text>
  <text x="1010" y="210" font-family="monospace" font-size="12" fill="#64748b">Q1 2025</text>

  <line x1="61" y1="234" x2="1139" y2="234" stroke="#1f5e58" stroke-width="0.5" opacity="0.5"/>

  <!-- ===== ROW 3 ===== -->
  <rect x="61" y="234" width="1078" height="60" fill="#0d1f1e" opacity="0.6"/>
  <text x="90"  y="270" font-family="monospace" font-size="12" fill="#b2f5ea">Work Unit 3</text>
  <text x="290" y="270" font-family="monospace" font-size="12" fill="#94a3b8">Partner 1</text>
  <!-- Status: Backlog -->
  <rect x="465" y="254" width="100" height="24" rx="12" fill="#4c0519" stroke="#f43f5e" stroke-width="0.8"/>
  <text x="515" y="271" text-anchor="middle" font-family="monospace" font-size="11" fill="#fb7185">Backlog</text>
  <!-- QC: — -->
  <rect x="638" y="254" width="80" height="24" rx="12" fill="#1e1a2e" stroke="#6366f1" stroke-width="0.8"/>
  <text x="678" y="271" text-anchor="middle" font-family="monospace" font-size="11" fill="#a5b4fc">—</text>
  <text x="790" y="270" font-family="monospace" font-size="12" fill="#334155">No file</text>
  <text x="1010" y="270" font-family="monospace" font-size="12" fill="#64748b">→ Q2</text>

  <line x1="61" y1="294" x2="1139" y2="294" stroke="#1f5e58" stroke-width="0.5" opacity="0.5"/>

  <!-- ===== ROW 4 ===== -->
  <rect x="61" y="294" width="1078" height="60" fill="#0a1a19" opacity="0.3"/>
  <text x="90"  y="330" font-family="monospace" font-size="12" fill="#b2f5ea">Work Unit 4</text>
  <text x="290" y="330" font-family="monospace" font-size="12" fill="#94a3b8">Partner 3</text>
  <!-- Status: Delivered -->
  <rect x="465" y="314" width="100" height="24" rx="12" fill="#065f46" stroke="#059669" stroke-width="0.8"/>
  <text x="515" y="331" text-anchor="middle" font-family="monospace" font-size="11" fill="#34d399">Delivered</text>
  <!-- QC: Pass -->
  <rect x="638" y="314" width="80" height="24" rx="12" fill="#065f46" stroke="#059669" stroke-width="0.8"/>
  <text x="678" y="331" text-anchor="middle" font-family="monospace" font-size="11" fill="#34d399">✓ Pass</text>
  <text x="790" y="330" font-family="monospace" font-size="12" fill="#0d9488">📎 5 files</text>
  <text x="1010" y="330" font-family="monospace" font-size="12" fill="#64748b">Q1 2025</text>

  <line x1="61" y1="354" x2="1139" y2="354" stroke="#1f5e58" stroke-width="0.5" opacity="0.5"/>

  <!-- ===== ROW 5 ===== -->
  <rect x="61" y="354" width="1078" height="60" fill="#0d1f1e" opacity="0.6"/>
  <text x="90"  y="390" font-family="monospace" font-size="12" fill="#b2f5ea">Work Unit 5</text>
  <text x="290" y="390" font-family="monospace" font-size="12" fill="#94a3b8">Partner 2</text>
  <!-- Status: In Review -->
  <rect x="465" y="374" width="100" height="24" rx="12" fill="#1c3158" stroke="#3b82f6" stroke-width="0.8"/>
  <text x="515" y="391" text-anchor="middle" font-family="monospace" font-size="11" fill="#60a5fa">In Review</text>
  <!-- QC: Pass -->
  <rect x="638" y="374" width="80" height="24" rx="12" fill="#065f46" stroke="#059669" stroke-width="0.8"/>
  <text x="678" y="391" text-anchor="middle" font-family="monospace" font-size="11" fill="#34d399">✓ Pass</text>
  <text x="790" y="390" font-family="monospace" font-size="12" fill="#0d9488">📎 7 files</text>
  <text x="1010" y="390" font-family="monospace" font-size="12" fill="#64748b">Q1 2025</text>

  <line x1="61" y1="414" x2="1139" y2="414" stroke="#1f5e58" stroke-width="0.5" opacity="0.5"/>

  <!-- ===== ROW 6 ===== -->
  <rect x="61" y="414" width="1078" height="60" fill="#0a1a19" opacity="0.3"/>
  <text x="90"  y="450" font-family="monospace" font-size="12" fill="#b2f5ea">Work Unit 6</text>
  <text x="290" y="450" font-family="monospace" font-size="12" fill="#94a3b8">Partner 4</text>
  <!-- Status: Delivered -->
  <rect x="465" y="434" width="100" height="24" rx="12" fill="#065f46" stroke="#059669" stroke-width="0.8"/>
  <text x="515" y="451" text-anchor="middle" font-family="monospace" font-size="11" fill="#34d399">Delivered</text>
  <!-- QC: Pass -->
  <rect x="638" y="434" width="80" height="24" rx="12" fill="#065f46" stroke="#059669" stroke-width="0.8"/>
  <text x="678" y="451" text-anchor="middle" font-family="monospace" font-size="11" fill="#34d399">✓ Pass</text>
  <text x="790" y="450" font-family="monospace" font-size="12" fill="#0d9488">📎 2 files</text>
  <text x="1010" y="450" font-family="monospace" font-size="12" fill="#64748b">Q1 2025</text>

  <line x1="61" y1="474" x2="1139" y2="474" stroke="#1f5e58" stroke-width="0.5" opacity="0.5"/>

  <!-- ===== ROW 7 (fade) ===== -->
  <rect x="61" y="474" width="1078" height="60" fill="#0d1f1e" opacity="0.6"/>
  <text x="90"  y="510" font-family="monospace" font-size="12" fill="#b2f5ea" opacity="0.5">Work Unit 7</text>
  <text x="290" y="510" font-family="monospace" font-size="12" fill="#94a3b8" opacity="0.5">Partner 3</text>
  <rect x="465" y="494" width="100" height="24" rx="12" fill="#4c0519" stroke="#f43f5e" stroke-width="0.8" opacity="0.5"/>
  <text x="515" y="511" text-anchor="middle" font-family="monospace" font-size="11" fill="#fb7185" opacity="0.5">Backlog</text>
  <rect x="638" y="494" width="80" height="24" rx="12" fill="#1e1a2e" stroke="#6366f1" stroke-width="0.8" opacity="0.5"/>
  <text x="678" y="511" text-anchor="middle" font-family="monospace" font-size="11" fill="#a5b4fc" opacity="0.5">—</text>
  <text x="790" y="510" font-family="monospace" font-size="12" fill="#334155" opacity="0.5">No file</text>
  <text x="1010" y="510" font-family="monospace" font-size="12" fill="#64748b" opacity="0.5">→ Q2</text>

  <!-- Fade-out gradient at bottom of table -->
  <defs>
    <linearGradient id="fadeOut" x1="0%" y1="0%" x2="0%" y2="100%">
      <stop offset="0%" style="stop-color:#0a1e1d;stop-opacity:0"/>
      <stop offset="100%" style="stop-color:#0a1e1d;stop-opacity:1"/>
    </linearGradient>
  </defs>
  <rect x="61" y="510" width="1078" height="66" rx="0" fill="url(#fadeOut)"/>
  <text x="600" y="558" text-anchor="middle" fill="#1f5e58" font-family="monospace" font-size="12" opacity="0.7">··· more work units ···</text>
</svg>
